<svg width="174" height="175" viewBox="0 0 174 175" fill="none" xmlns="http://www.w3.org/2000/svg">
<rect width="174" height="175" fill="#1E1E1E"/>
<g id="app">
<path d="M-370 5599.5C-370.276 5599.5 -370.5 5599.28 -370.5 5599H-373.5C-373.5 5600.93 -371.933 5602.5 -370 5602.5V5599.5ZM-370.5 5599V5584.04H-373.5V5599H-370.5ZM-370.5 5554.11V5524.18H-373.5V5554.11H-370.5ZM-370.5 5494.25V5464.33H-373.5V5494.25H-370.5ZM-370.5 5434.4V5404.47H-373.5V5434.4H-370.5ZM-370.5 5374.55V5344.62H-373.5V5374.55H-370.5ZM-370.5 5314.69V5284.76H-373.5V5314.69H-370.5ZM-370.5 5254.84V5224.91H-373.5V5254.84H-370.5ZM-370.5 5194.98V5165.06H-373.5V5194.98H-370.5ZM-370.5 5135.13V5105.2H-373.5V5135.13H-370.5ZM-370.5 5075.27V5045.35H-373.5V5075.27H-370.5ZM-370.5 5015.42V4985.49H-373.5V5015.42H-370.5ZM-370.5 4955.57V4925.64H-373.5V4955.57H-370.5ZM-370.5 4895.71V4865.78H-373.5V4895.71H-370.5ZM-370.5 4835.86V4805.93H-373.5V4835.86H-370.5ZM-370.5 4776V4746.08H-373.5V4776H-370.5ZM-370.5 4716.15V4686.22H-373.5V4716.15H-370.5ZM-370.5 4656.29V4626.37H-373.5V4656.29H-370.5ZM-370.5 4596.44V4566.51H-373.5V4596.44H-370.5ZM-370.5 4536.58V4506.66H-373.5V4536.58H-370.5ZM-370.5 4476.73V4446.8H-373.5V4476.73H-370.5ZM-370.5 4416.88V4386.95H-373.5V4416.88H-370.5ZM-370.5 4357.02V4327.09H-373.5V4357.02H-370.5ZM-370.5 4297.17V4267.24H-373.5V4297.17H-370.5ZM-370.5 4237.31V4207.39H-373.5V4237.31H-370.5ZM-370.5 4177.46V4147.53H-373.5V4177.46H-370.5ZM-370.5 4117.6V4087.68H-373.5V4117.6H-370.5ZM-370.5 4057.75V4027.82H-373.5V4057.75H-370.5ZM-370.5 3997.89V3967.97H-373.5V3997.89H-370.5ZM-370.5 3938.04V3908.11H-373.5V3938.04H-370.5ZM-370.5 3878.19V3848.26H-373.5V3878.19H-370.5ZM-370.5 3818.33V3788.4H-373.5V3818.33H-370.5ZM-370.5 3758.48V3728.55H-373.5V3758.48H-370.5ZM-370.5 3698.62V3668.69H-373.5V3698.62H-370.5ZM-370.5 3638.77V3608.84H-373.5V3638.77H-370.5ZM-370.5 3578.91V3548.99H-373.5V3578.91H-370.5ZM-370.5 3519.06V3489.13H-373.5V3519.06H-370.5ZM-370.5 3459.2V3429.28H-373.5V3459.2H-370.5ZM-370.5 3399.35V3369.42H-373.5V3399.35H-370.5ZM-370.5 3339.5V3309.57H-373.5V3339.5H-370.5ZM-370.5 3279.64V3249.71H-373.5V3279.64H-370.5ZM-370.5 3219.79V3189.86H-373.5V3219.79H-370.5ZM-370.5 3159.93V3130H-373.5V3159.93H-370.5ZM-370.5 3100.08V3070.15H-373.5V3100.08H-370.5ZM-370.5 3040.22V3010.3H-373.5V3040.22H-370.5ZM-370.5 2980.37V2950.44H-373.5V2980.37H-370.5ZM-370.5 2920.51V2890.59H-373.5V2920.51H-370.5ZM-370.5 2860.66V2830.73H-373.5V2860.66H-370.5ZM-370.5 2800.8V2770.88H-373.5V2800.8H-370.5ZM-370.5 2740.95V2711.02H-373.5V2740.95H-370.5ZM-370.5 2681.1V2651.17H-373.5V2681.1H-370.5ZM-370.5 2621.24V2591.31H-373.5V2621.24H-370.5ZM-370.5 2561.39V2531.46H-373.5V2561.39H-370.5ZM-370.5 2501.53V2471.6H-373.5V2501.53H-370.5ZM-370.5 2441.68V2411.75H-373.5V2441.68H-370.5ZM-370.5 2381.82V2351.9H-373.5V2381.82H-370.5ZM-370.5 2321.97V2292.04H-373.5V2321.97H-370.5ZM-370.5 2262.11V2232.19H-373.5V2262.11H-370.5ZM-370.5 2202.26V2172.33H-373.5V2202.26H-370.5ZM-370.5 2142.41V2112.48H-373.5V2142.41H-370.5ZM-370.5 2082.55V2052.62H-373.5V2082.55H-370.5ZM-370.5 2022.7V1992.77H-373.5V2022.7H-370.5ZM-370.5 1962.84V1932.91H-373.5V1962.84H-370.5ZM-370.5 1902.99V1873.06H-373.5V1902.99H-370.5ZM-370.5 1843.13V1813.21H-373.5V1843.13H-370.5ZM-370.5 1783.28V1753.35H-373.5V1783.28H-370.5ZM-370.5 1723.42V1693.5H-373.5V1723.42H-370.5ZM-370.5 1663.57V1633.64H-373.5V1663.57H-370.5ZM-370.5 1603.71V1573.79H-373.5V1603.71H-370.5ZM-370.5 1543.86V1513.93H-373.5V1543.86H-370.5ZM-370.5 1484.01V1454.08H-373.5V1484.01H-370.5ZM-370.5 1424.15V1394.22H-373.5V1424.15H-370.5ZM-370.5 1364.3V1334.37H-373.5V1364.3H-370.5ZM-370.5 1304.44V1274.52H-373.5V1304.44H-370.5ZM-370.5 1244.59V1214.66H-373.5V1244.59H-370.5ZM-370.5 1184.73V1154.81H-373.5V1184.73H-370.5ZM-370.5 1124.88V1094.95H-373.5V1124.88H-370.5ZM-370.5 1065.02V1035.1H-373.5V1065.02H-370.5ZM-370.5 1005.17V975.243H-373.5V1005.17H-370.5ZM-370.5 945.315V915.388H-373.5V945.315H-370.5ZM-370.5 885.461V855.534H-373.5V885.461H-370.5ZM-370.5 825.606V795.679H-373.5V825.606H-370.5ZM-370.5 765.752V735.824H-373.5V765.752H-370.5ZM-370.5 705.897V675.97H-373.5V705.897H-370.5ZM-370.5 646.043V616.116H-373.5V646.043H-370.5ZM-370.5 586.189V556.261H-373.5V586.189H-370.5ZM-370.5 526.334V496.407H-373.5V526.334H-370.5ZM-370.5 466.479V436.552H-373.5V466.479H-370.5ZM-370.5 406.625V376.698H-373.5V406.625H-370.5ZM-370.5 346.771V316.843H-373.5V346.771H-370.5ZM-370.5 286.916V256.989H-373.5V286.916H-370.5ZM-370.5 227.061V197.134H-373.5V227.061H-370.5ZM-370.5 167.207V137.28H-373.5V167.207H-370.5ZM-370.5 107.352V77.4252H-373.5V107.352H-370.5ZM-370.5 47.4979V17.5707H-373.5V47.4979H-370.5ZM-370.5 -12.3566V-42.2839H-373.5V-12.3566H-370.5ZM-370.5 -72.2111V-102.138H-373.5V-72.2111H-370.5ZM-370.5 -132.066V-161.993H-373.5V-132.066H-370.5ZM-370.5 -191.92V-221.847H-373.5V-191.92H-370.5ZM-370.5 -251.774V-281.702H-373.5V-251.774H-370.5ZM-370.5 -311.629V-341.556H-373.5V-311.629H-370.5ZM-370.5 -371.483V-401.411H-373.5V-371.483H-370.5ZM-370.5 -431.338V-461.265H-373.5V-431.338H-370.5ZM-370.5 -491.192V-521.12H-373.5V-491.192H-370.5ZM-370.5 -551.047V-566H-373.5V-551.047H-370.5ZM-370.5 -566C-370.5 -566.276 -370.276 -566.5 -370 -566.5V-569.5C-371.933 -569.5 -373.5 -567.933 -373.5 -566H-370.5ZM-370 -566.5H-355.052V-569.5H-370V-566.5ZM-325.156 -566.5H-295.26V-569.5H-325.156V-566.5ZM-265.365 -566.5H-235.469V-569.5H-265.365V-566.5ZM-205.573 -566.5H-175.677V-569.5H-205.573V-566.5ZM-145.781 -566.5H-115.885V-569.5H-145.781V-566.5ZM-85.9896 -566.5H-56.0938V-569.5H-85.9896V-566.5ZM-26.1979 -566.5H3.69794V-569.5H-26.1979V-566.5ZM33.5938 -566.5H63.4896V-569.5H33.5938V-566.5ZM93.3855 -566.5H123.281V-569.5H93.3855V-566.5ZM153.177 -566.5H183.073V-569.5H153.177V-566.5ZM212.969 -566.5H242.865V-569.5H212.969V-566.5ZM272.76 -566.5H302.656V-569.5H272.76V-566.5ZM332.552 -566.5H362.448V-569.5H332.552V-566.5ZM392.344 -566.5H422.239V-569.5H392.344V-566.5ZM452.135 -566.5H482.031V-569.5H452.135V-566.5ZM511.927 -566.5H541.823V-569.5H511.927V-566.5ZM571.719 -566.5H601.614V-569.5H571.719V-566.5ZM631.51 -566.5H661.406V-569.5H631.51V-566.5ZM691.302 -566.5H721.198V-569.5H691.302V-566.5ZM751.094 -566.5H780.99V-569.5H751.094V-566.5ZM810.885 -566.5H840.781V-569.5H810.885V-566.5ZM870.677 -566.5H900.573V-569.5H870.677V-566.5ZM930.469 -566.5H960.365V-569.5H930.469V-566.5ZM990.261 -566.5H1020.16V-569.5H990.261V-566.5ZM1050.05 -566.5H1079.95V-569.5H1050.05V-566.5ZM1109.84 -566.5H1139.74V-569.5H1109.84V-566.5ZM1169.64 -566.5H1199.53V-569.5H1169.64V-566.5ZM1229.43 -566.5H1259.32V-569.5H1229.43V-566.5ZM1289.22 -566.5H1319.12V-569.5H1289.22V-566.5ZM1349.01 -566.5H1378.91V-569.5H1349.01V-566.5ZM1408.8 -566.5H1438.7V-569.5H1408.8V-566.5ZM1468.59 -566.5H1498.49V-569.5H1468.59V-566.5ZM1528.39 -566.5H1558.28V-569.5H1528.39V-566.5ZM1588.18 -566.5H1618.07V-569.5H1588.18V-566.5ZM1647.97 -566.5H1677.87V-569.5H1647.97V-566.5ZM1707.76 -566.5H1737.66V-569.5H1707.76V-566.5ZM1767.55 -566.5H1797.45V-569.5H1767.55V-566.5ZM1827.34 -566.5H1857.24V-569.5H1827.34V-566.5ZM1887.14 -566.5H1917.03V-569.5H1887.14V-566.5ZM1946.93 -566.5H1976.82V-569.5H1946.93V-566.5ZM2006.72 -566.5H2036.61V-569.5H2006.72V-566.5ZM2066.51 -566.5H2096.41V-569.5H2066.51V-566.5ZM2126.3 -566.5H2156.2V-569.5H2126.3V-566.5ZM2186.09 -566.5H2215.99V-569.5H2186.09V-566.5ZM2245.89 -566.5H2275.78V-569.5H2245.89V-566.5ZM2305.68 -566.5H2335.57V-569.5H2305.68V-566.5ZM2365.47 -566.5H2395.36V-569.5H2365.47V-566.5ZM2425.26 -566.5H2455.16V-569.5H2425.26V-566.5ZM2485.05 -566.5H2514.95V-569.5H2485.05V-566.5ZM2544.84 -566.5H2574.74V-569.5H2544.84V-566.5ZM2604.63 -566.5H2634.53V-569.5H2604.63V-566.5ZM2664.43 -566.5H2694.32V-569.5H2664.43V-566.5ZM2724.22 -566.5H2754.11V-569.5H2724.22V-566.5ZM2784.01 -566.5H2813.9V-569.5H2784.01V-566.5ZM2843.8 -566.5H2873.7V-569.5H2843.8V-566.5ZM2903.59 -566.5H2933.49V-569.5H2903.59V-566.5ZM2963.38 -566.5H2993.28V-569.5H2963.38V-566.5ZM3023.17 -566.5H3053.07V-569.5H3023.17V-566.5ZM3082.97 -566.5H3112.86V-569.5H3082.97V-566.5ZM3142.76 -566.5H3172.65V-569.5H3142.76V-566.5ZM3202.55 -566.5H3232.45V-569.5H3202.55V-566.5ZM3262.34 -566.5H3292.24V-569.5H3262.34V-566.5ZM3322.13 -566.5H3352.03V-569.5H3322.13V-566.5ZM3381.92 -566.5H3411.82V-569.5H3381.92V-566.5ZM3441.72 -566.5H3471.61V-569.5H3441.72V-566.5ZM3501.51 -566.5H3531.4V-569.5H3501.51V-566.5ZM3561.3 -566.5H3591.19V-569.5H3561.3V-566.5ZM3621.09 -566.5H3650.99V-569.5H3621.09V-566.5ZM3680.88 -566.5H3710.78V-569.5H3680.88V-566.5ZM3740.67 -566.5H3770.57V-569.5H3740.67V-566.5ZM3800.46 -566.5H3830.36V-569.5H3800.46V-566.5ZM3860.26 -566.5H3890.15V-569.5H3860.26V-566.5ZM3920.05 -566.5H3935V-569.5H3920.05V-566.5ZM3935 -566.5C3935.28 -566.5 3935.5 -566.276 3935.5 -566H3938.5C3938.5 -567.933 3936.93 -569.5 3935 -569.5V-566.5ZM3935.5 -566V-551.036H3938.5V-566H3935.5ZM3935.5 -521.109V-491.182H3938.5V-521.109H3935.5ZM3935.5 -461.255V-431.328H3938.5V-461.255H3935.5ZM3935.5 -401.4V-371.473H3938.5V-401.4H3935.5ZM3935.5 -341.546V-311.619H3938.5V-341.546H3935.5ZM3935.5 -281.692V-251.765H3938.5V-281.692H3935.5ZM3935.5 -221.837V-191.91H3938.5V-221.837H3935.5ZM3935.5 -161.983V-132.056H3938.5V-161.983H3935.5ZM3935.5 -102.129V-72.2014H3938.5V-102.129H3935.5ZM3935.5 -42.2743V-12.3471H3938.5V-42.2743H3935.5ZM3935.5 17.5801V47.5073H3938.5V17.5801H3935.5ZM3935.5 77.4344V107.362H3938.5V77.4344H3935.5ZM3935.5 137.289V167.216H3938.5V137.289H3935.5ZM3935.5 197.143V227.07H3938.5V197.143H3935.5ZM3935.5 256.998V286.925H3938.5V256.998H3935.5ZM3935.5 316.852V346.779H3938.5V316.852H3935.5ZM3935.5 376.706V406.633H3938.5V376.706H3935.5ZM3935.5 436.561V466.488H3938.5V436.561H3935.5ZM3935.5 496.415V526.342H3938.5V496.415H3935.5ZM3935.5 556.27V586.197H3938.5V556.27H3935.5ZM3935.5 616.124V646.051H3938.5V616.124H3935.5ZM3935.5 675.979V705.906H3938.5V675.979H3935.5ZM3935.5 735.833V765.76H3938.5V735.833H3935.5ZM3935.5 795.688V825.615H3938.5V795.688H3935.5ZM3935.5 855.542V885.469H3938.5V855.542H3935.5ZM3935.5 915.396V945.324H3938.5V915.396H3935.5ZM3935.5 975.251V1005.18H3938.5V975.251H3935.5ZM3935.5 1035.11V1065.03H3938.5V1035.11H3935.5ZM3935.5 1094.96V1124.89H3938.5V1094.96H3935.5ZM3935.5 1154.81V1184.74H3938.5V1154.81H3935.5ZM3935.5 1214.67V1244.6H3938.5V1214.67H3935.5ZM3935.5 1274.52V1304.45H3938.5V1274.52H3935.5ZM3935.5 1334.38V1364.31H3938.5V1334.38H3935.5ZM3935.5 1394.23V1424.16H3938.5V1394.23H3935.5ZM3935.5 1454.09V1484.01H3938.5V1454.09H3935.5ZM3935.5 1513.94V1543.87H3938.5V1513.94H3935.5ZM3935.5 1573.8V1603.72H3938.5V1573.8H3935.5ZM3935.5 1633.65V1663.58H3938.5V1633.65H3935.5ZM3935.5 1693.5V1723.43H3938.5V1693.5H3935.5ZM3935.5 1753.36V1783.29H3938.5V1753.36H3935.5ZM3935.5 1813.21V1843.14H3938.5V1813.21H3935.5ZM3935.5 1873.07V1903H3938.5V1873.07H3935.5ZM3935.5 1932.92V1962.85H3938.5V1932.92H3935.5ZM3935.5 1992.78V2022.7H3938.5V1992.78H3935.5ZM3935.5 2052.63V2082.56H3938.5V2052.63H3935.5ZM3935.5 2112.49V2142.41H3938.5V2112.49H3935.5ZM3935.5 2172.34V2202.27H3938.5V2172.34H3935.5ZM3935.5 2232.2V2262.12H3938.5V2232.2H3935.5ZM3935.5 2292.05V2321.98H3938.5V2292.05H3935.5ZM3935.5 2351.9V2381.83H3938.5V2351.9H3935.5ZM3935.5 2411.76V2441.69H3938.5V2411.76H3935.5ZM3935.5 2471.61V2501.54H3938.5V2471.61H3935.5ZM3935.5 2531.47V2561.4H3938.5V2531.47H3935.5ZM3935.5 2591.32V2621.25H3938.5V2591.32H3935.5ZM3935.5 2651.18V2681.1H3938.5V2651.18H3935.5ZM3935.5 2711.03V2740.96H3938.5V2711.03H3935.5ZM3935.5 2770.89V2800.81H3938.5V2770.89H3935.5ZM3935.5 2830.74V2860.67H3938.5V2830.74H3935.5ZM3935.5 2890.59V2920.52H3938.5V2890.59H3935.5ZM3935.5 2950.45V2980.38H3938.5V2950.45H3935.5ZM3935.5 3010.3V3040.23H3938.5V3010.3H3935.5ZM3935.5 3070.16V3100.09H3938.5V3070.16H3935.5ZM3935.5 3130.01V3159.94H3938.5V3130.01H3935.5ZM3935.5 3189.87V3219.79H3938.5V3189.87H3935.5ZM3935.5 3249.72V3279.65H3938.5V3249.72H3935.5ZM3935.5 3309.58V3339.5H3938.5V3309.58H3935.5ZM3935.5 3369.43V3399.36H3938.5V3369.43H3935.5ZM3935.5 3429.29V3459.21H3938.5V3429.29H3935.5ZM3935.5 3489.14V3519.07H3938.5V3489.14H3935.5ZM3935.5 3548.99V3578.92H3938.5V3548.99H3935.5ZM3935.5 3608.85V3638.78H3938.5V3608.85H3935.5ZM3935.5 3668.7V3698.63H3938.5V3668.7H3935.5ZM3935.5 3728.56V3758.48H3938.5V3728.56H3935.5ZM3935.5 3788.41V3818.34H3938.5V3788.41H3935.5ZM3935.5 3848.27V3878.19H3938.5V3848.27H3935.5ZM3935.5 3908.12V3938.05H3938.5V3908.12H3935.5ZM3935.5 3967.98V3997.9H3938.5V3967.98H3935.5ZM3935.5 4027.83V4057.76H3938.5V4027.83H3935.5ZM3935.5 4087.68V4117.61H3938.5V4087.68H3935.5ZM3935.5 4147.54V4177.47H3938.5V4147.54H3935.5ZM3935.5 4207.39V4237.32H3938.5V4207.39H3935.5ZM3935.5 4267.25V4297.18H3938.5V4267.25H3935.5ZM3935.5 4327.1V4357.03H3938.5V4327.1H3935.5ZM3935.5 4386.96V4416.88H3938.5V4386.96H3935.5ZM3935.5 4446.81V4476.74H3938.5V4446.81H3935.5ZM3935.5 4506.67V4536.59H3938.5V4506.67H3935.5ZM3935.5 4566.52V4596.45H3938.5V4566.52H3935.5ZM3935.5 4626.38V4656.3H3938.5V4626.38H3935.5ZM3935.5 4686.23V4716.16H3938.5V4686.23H3935.5ZM3935.5 4746.08V4776.01H3938.5V4746.08H3935.5ZM3935.5 4805.94V4835.87H3938.5V4805.94H3935.5ZM3935.5 4865.79V4895.72H3938.5V4865.79H3935.5ZM3935.5 4925.65V4955.57H3938.5V4925.65H3935.5ZM3935.5 4985.5V5015.43H3938.5V4985.5H3935.5ZM3935.5 5045.36V5075.28H3938.5V5045.36H3935.5ZM3935.5 5105.21V5135.14H3938.5V5105.21H3935.5ZM3935.5 5165.07V5194.99H3938.5V5165.07H3935.5ZM3935.5 5224.92V5254.85H3938.5V5224.92H3935.5ZM3935.5 5284.77V5314.7H3938.5V5284.77H3935.5ZM3935.5 5344.63V5374.56H3938.5V5344.63H3935.5ZM3935.5 5404.48V5434.41H3938.5V5404.48H3935.5ZM3935.5 5464.34V5494.27H3938.5V5464.34H3935.5ZM3935.5 5524.19V5554.12H3938.5V5524.19H3935.5ZM3935.5 5584.05V5599H3938.5V5584.05H3935.5ZM3935.5 5599C3935.5 5599.28 3935.28 5599.5 3935 5599.5V5602.5C3936.93 5602.5 3938.5 5600.93 3938.5 5599H3935.5ZM3935 5599.5H3920.05V5602.5H3935V5599.5ZM3890.16 5599.5H3860.26V5602.5H3890.16V5599.5ZM3830.36 5599.5H3800.47V5602.5H3830.36V5599.5ZM3770.57 5599.5H3740.68V5602.5H3770.57V5599.5ZM3710.78 5599.5H3680.89V5602.5H3710.78V5599.5ZM3650.99 5599.5H3621.09V5602.5H3650.99V5599.5ZM3591.2 5599.5H3561.3V5602.5H3591.2V5599.5ZM3531.41 5599.5H3501.51V5602.5H3531.41V5599.5ZM3471.61 5599.5H3441.72V5602.5H3471.61V5599.5ZM3411.82 5599.5H3381.93V5602.5H3411.82V5599.5ZM3352.03 5599.5H3322.14V5602.5H3352.03V5599.5ZM3292.24 5599.5H3262.34V5602.5H3292.24V5599.5ZM3232.45 5599.5H3202.55V5602.5H3232.45V5599.5ZM3172.66 5599.5H3142.76V5602.5H3172.66V5599.5ZM3112.86 5599.5H3082.97V5602.5H3112.86V5599.5ZM3053.07 5599.5H3023.18V5602.5H3053.07V5599.5ZM2993.28 5599.5H2963.39V5602.5H2993.28V5599.5ZM2933.49 5599.5H2903.59V5602.5H2933.49V5599.5ZM2873.7 5599.5H2843.8V5602.5H2873.7V5599.5ZM2813.91 5599.5H2784.01V5602.5H2813.91V5599.5ZM2754.11 5599.5H2724.22V5602.5H2754.11V5599.5ZM2694.32 5599.5H2664.43V5602.5H2694.32V5599.5ZM2634.53 5599.5H2604.64V5602.5H2634.53V5599.5ZM2574.74 5599.5H2544.84V5602.5H2574.74V5599.5ZM2514.95 5599.5H2485.05V5602.5H2514.95V5599.5ZM2455.16 5599.5H2425.26V5602.5H2455.16V5599.5ZM2395.36 5599.5H2365.47V5602.5H2395.36V5599.5ZM2335.57 5599.5H2305.68V5602.5H2335.57V5599.5ZM2275.78 5599.5H2245.88V5602.5H2275.78V5599.5ZM2215.99 5599.5H2186.09V5602.5H2215.99V5599.5ZM2156.2 5599.5H2126.3V5602.5H2156.2V5599.5ZM2096.41 5599.5H2066.51V5602.5H2096.41V5599.5ZM2036.61 5599.5H2006.72V5602.5H2036.61V5599.5ZM1976.82 5599.5H1946.93V5602.5H1976.82V5599.5ZM1917.03 5599.5H1887.13V5602.5H1917.03V5599.5ZM1857.24 5599.5H1827.34V5602.5H1857.24V5599.5ZM1797.45 5599.5H1767.55V5602.5H1797.45V5599.5ZM1737.66 5599.5H1707.76V5602.5H1737.66V5599.5ZM1677.86 5599.5H1647.97V5602.5H1677.86V5599.5ZM1618.07 5599.5H1588.18V5602.5H1618.07V5599.5ZM1558.28 5599.5H1528.39V5602.5H1558.28V5599.5ZM1498.49 5599.5H1468.59V5602.5H1498.49V5599.5ZM1438.7 5599.5H1408.8V5602.5H1438.7V5599.5ZM1378.91 5599.5H1349.01V5602.5H1378.91V5599.5ZM1319.12 5599.5H1289.22V5602.5H1319.12V5599.5ZM1259.32 5599.5H1229.43V5602.5H1259.32V5599.5ZM1199.53 5599.5H1169.64V5602.5H1199.53V5599.5ZM1139.74 5599.5H1109.84V5602.5H1139.74V5599.5ZM1079.95 5599.5H1050.05V5602.5H1079.95V5599.5ZM1020.16 5599.5H990.262V5602.5H1020.16V5599.5ZM960.366 5599.5H930.47V5602.5H960.366V5599.5ZM900.574 5599.5H870.679V5602.5H900.574V5599.5ZM840.783 5599.5H810.887V5602.5H840.783V5599.5ZM780.991 5599.5H751.096V5602.5H780.991V5599.5ZM721.2 5599.5H691.304V5602.5H721.2V5599.5ZM661.408 5599.5H631.513V5602.5H661.408V5599.5ZM601.617 5599.5H571.721V5602.5H601.617V5599.5ZM541.825 5599.5H511.93V5602.5H541.825V5599.5ZM482.034 5599.5H452.138V5602.5H482.034V5599.5ZM422.242 5599.5H392.347V5602.5H422.242V5599.5ZM362.451 5599.5H332.555V5602.5H362.451V5599.5ZM302.659 5599.5H272.764V5602.5H302.659V5599.5ZM242.868 5599.5H212.972V5602.5H242.868V5599.5ZM183.076 5599.5H153.181V5602.5H183.076V5599.5ZM123.285 5599.5H93.389V5602.5H123.285V5599.5ZM63.4933 5599.5H33.5976V5602.5H63.4933V5599.5ZM3.70187 5599.5H-26.1938V5602.5H3.70187V5599.5ZM-56.0896 5599.5H-85.9853V5602.5H-56.0896V5599.5ZM-115.881 5599.5H-145.777V5602.5H-115.881V5599.5ZM-175.673 5599.5H-205.569V5602.5H-175.673V5599.5ZM-235.465 5599.5H-265.361V5602.5H-235.465V5599.5ZM-295.257 5599.5H-325.153V5602.5H-295.257V5599.5ZM-355.049 5599.5H-370V5602.5H-355.049V5599.5ZM-370 5598C-369.448 5598 -369 5598.45 -369 5599H-375C-375 5601.76 -372.761 5604 -370 5604V5598ZM-369 5599V5584.04H-375V5599H-369ZM-369 5554.11V5524.18H-375V5554.11H-369ZM-369 5494.25V5464.33H-375V5494.25H-369ZM-369 5434.4V5404.47H-375V5434.4H-369ZM-369 5374.55V5344.62H-375V5374.55H-369ZM-369 5314.69V5284.76H-375V5314.69H-369ZM-369 5254.84V5224.91H-375V5254.84H-369ZM-369 5194.98V5165.06H-375V5194.98H-369ZM-369 5135.13V5105.2H-375V5135.13H-369ZM-369 5075.27V5045.35H-375V5075.27H-369ZM-369 5015.42V4985.49H-375V5015.42H-369ZM-369 4955.57V4925.64H-375V4955.57H-369ZM-369 4895.71V4865.78H-375V4895.71H-369ZM-369 4835.86V4805.93H-375V4835.86H-369ZM-369 4776V4746.08H-375V4776H-369ZM-369 4716.15V4686.22H-375V4716.15H-369ZM-369 4656.29V4626.37H-375V4656.29H-369ZM-369 4596.44V4566.51H-375V4596.44H-369ZM-369 4536.58V4506.66H-375V4536.58H-369ZM-369 4476.73V4446.8H-375V4476.73H-369ZM-369 4416.88V4386.95H-375V4416.88H-369ZM-369 4357.02V4327.09H-375V4357.02H-369ZM-369 4297.17V4267.24H-375V4297.17H-369ZM-369 4237.31V4207.39H-375V4237.31H-369ZM-369 4177.46V4147.53H-375V4177.46H-369ZM-369 4117.6V4087.68H-375V4117.6H-369ZM-369 4057.75V4027.82H-375V4057.75H-369ZM-369 3997.89V3967.97H-375V3997.89H-369ZM-369 3938.04V3908.11H-375V3938.04H-369ZM-369 3878.19V3848.26H-375V3878.19H-369ZM-369 3818.33V3788.4H-375V3818.33H-369ZM-369 3758.48V3728.55H-375V3758.48H-369ZM-369 3698.62V3668.69H-375V3698.62H-369ZM-369 3638.77V3608.84H-375V3638.77H-369ZM-369 3578.91V3548.99H-375V3578.91H-369ZM-369 3519.06V3489.13H-375V3519.06H-369ZM-369 3459.2V3429.28H-375V3459.2H-369ZM-369 3399.35V3369.42H-375V3399.35H-369ZM-369 3339.5V3309.57H-375V3339.5H-369ZM-369 3279.64V3249.71H-375V3279.64H-369ZM-369 3219.79V3189.86H-375V3219.79H-369ZM-369 3159.93V3130H-375V3159.93H-369ZM-369 3100.08V3070.15H-375V3100.08H-369ZM-369 3040.22V3010.3H-375V3040.22H-369ZM-369 2980.37V2950.44H-375V2980.37H-369ZM-369 2920.51V2890.59H-375V2920.51H-369ZM-369 2860.66V2830.73H-375V2860.66H-369ZM-369 2800.8V2770.88H-375V2800.8H-369ZM-369 2740.95V2711.02H-375V2740.95H-369ZM-369 2681.1V2651.17H-375V2681.1H-369ZM-369 2621.24V2591.31H-375V2621.24H-369ZM-369 2561.39V2531.46H-375V2561.39H-369ZM-369 2501.53V2471.6H-375V2501.53H-369ZM-369 2441.68V2411.75H-375V2441.68H-369ZM-369 2381.82V2351.9H-375V2381.82H-369ZM-369 2321.97V2292.04H-375V2321.97H-369ZM-369 2262.11V2232.19H-375V2262.11H-369ZM-369 2202.26V2172.33H-375V2202.26H-369ZM-369 2142.41V2112.48H-375V2142.41H-369ZM-369 2082.55V2052.62H-375V2082.55H-369ZM-369 2022.7V1992.77H-375V2022.7H-369ZM-369 1962.84V1932.91H-375V1962.84H-369ZM-369 1902.99V1873.06H-375V1902.99H-369ZM-369 1843.13V1813.21H-375V1843.13H-369ZM-369 1783.28V1753.35H-375V1783.28H-369ZM-369 1723.42V1693.5H-375V1723.42H-369ZM-369 1663.57V1633.64H-375V1663.57H-369ZM-369 1603.71V1573.79H-375V1603.71H-369ZM-369 1543.86V1513.93H-375V1543.86H-369ZM-369 1484.01V1454.08H-375V1484.01H-369ZM-369 1424.15V1394.22H-375V1424.15H-369ZM-369 1364.3V1334.37H-375V1364.3H-369ZM-369 1304.44V1274.52H-375V1304.44H-369ZM-369 1244.59V1214.66H-375V1244.59H-369ZM-369 1184.73V1154.81H-375V1184.73H-369ZM-369 1124.88V1094.95H-375V1124.88H-369ZM-369 1065.02V1035.1H-375V1065.02H-369ZM-369 1005.17V975.243H-375V1005.17H-369ZM-369 945.315V915.388H-375V945.315H-369ZM-369 885.461V855.534H-375V885.461H-369ZM-369 825.606V795.679H-375V825.606H-369ZM-369 765.752V735.824H-375V765.752H-369ZM-369 705.897V675.97H-375V705.897H-369ZM-369 646.043V616.116H-375V646.043H-369ZM-369 586.189V556.261H-375V586.189H-369ZM-369 526.334V496.407H-375V526.334H-369ZM-369 466.479V436.552H-375V466.479H-369ZM-369 406.625V376.698H-375V406.625H-369ZM-369 346.771V316.843H-375V346.771H-369ZM-369 286.916V256.989H-375V286.916H-369ZM-369 227.061V197.134H-375V227.061H-369ZM-369 167.207V137.28H-375V167.207H-369ZM-369 107.352V77.4252H-375V107.352H-369ZM-369 47.4979V17.5707H-375V47.4979H-369ZM-369 -12.3566V-42.2839H-375V-12.3566H-369ZM-369 -72.2111V-102.138H-375V-72.2111H-369ZM-369 -132.066V-161.993H-375V-132.066H-369ZM-369 -191.92V-221.847H-375V-191.92H-369ZM-369 -251.774V-281.702H-375V-251.774H-369ZM-369 -311.629V-341.556H-375V-311.629H-369ZM-369 -371.483V-401.411H-375V-371.483H-369ZM-369 -431.338V-461.265H-375V-431.338H-369ZM-369 -491.192V-521.12H-375V-491.192H-369ZM-369 -551.047V-566H-375V-551.047H-369ZM-369 -566C-369 -565.448 -369.448 -565 -370 -565V-571C-372.761 -571 -375 -568.762 -375 -566H-369ZM-370 -565H-355.052V-571H-370V-565ZM-325.156 -565H-295.26V-571H-325.156V-565ZM-265.365 -565H-235.469V-571H-265.365V-565ZM-205.573 -565H-175.677V-571H-205.573V-565ZM-145.781 -565H-115.885V-571H-145.781V-565ZM-85.9896 -565H-56.0938V-571H-85.9896V-565ZM-26.1979 -565H3.69794V-571H-26.1979V-565ZM33.5938 -565H63.4896V-571H33.5938V-565ZM93.3855 -565H123.281V-571H93.3855V-565ZM153.177 -565H183.073V-571H153.177V-565ZM212.969 -565H242.865V-571H212.969V-565ZM272.76 -565H302.656V-571H272.76V-565ZM332.552 -565H362.448V-571H332.552V-565ZM392.344 -565H422.239V-571H392.344V-565ZM452.135 -565H482.031V-571H452.135V-565ZM511.927 -565H541.823V-571H511.927V-565ZM571.719 -565H601.614V-571H571.719V-565ZM631.51 -565H661.406V-571H631.51V-565ZM691.302 -565H721.198V-571H691.302V-565ZM751.094 -565H780.99V-571H751.094V-565ZM810.885 -565H840.781V-571H810.885V-565ZM870.677 -565H900.573V-571H870.677V-565ZM930.469 -565H960.365V-571H930.469V-565ZM990.261 -565H1020.16V-571H990.261V-565ZM1050.05 -565H1079.95V-571H1050.05V-565ZM1109.84 -565H1139.74V-571H1109.84V-565ZM1169.64 -565H1199.53V-571H1169.64V-565ZM1229.43 -565H1259.32V-571H1229.43V-565ZM1289.22 -565H1319.12V-571H1289.22V-565ZM1349.01 -565H1378.91V-571H1349.01V-565ZM1408.8 -565H1438.7V-571H1408.8V-565ZM1468.59 -565H1498.49V-571H1468.59V-565ZM1528.39 -565H1558.28V-571H1528.39V-565ZM1588.18 -565H1618.07V-571H1588.18V-565ZM1647.97 -565H1677.87V-571H1647.97V-565ZM1707.76 -565H1737.66V-571H1707.76V-565ZM1767.55 -565H1797.45V-571H1767.55V-565ZM1827.34 -565H1857.24V-571H1827.34V-565ZM1887.14 -565H1917.03V-571H1887.14V-565ZM1946.93 -565H1976.82V-571H1946.93V-565ZM2006.72 -565H2036.61V-571H2006.72V-565ZM2066.51 -565H2096.41V-571H2066.51V-565ZM2126.3 -565H2156.2V-571H2126.3V-565ZM2186.09 -565H2215.99V-571H2186.09V-565ZM2245.89 -565H2275.78V-571H2245.89V-565ZM2305.68 -565H2335.57V-571H2305.68V-565ZM2365.47 -565H2395.36V-571H2365.47V-565ZM2425.26 -565H2455.16V-571H2425.26V-565ZM2485.05 -565H2514.95V-571H2485.05V-565ZM2544.84 -565H2574.74V-571H2544.84V-565ZM2604.63 -565H2634.53V-571H2604.63V-565ZM2664.43 -565H2694.32V-571H2664.43V-565ZM2724.22 -565H2754.11V-571H2724.22V-565ZM2784.01 -565H2813.9V-571H2784.01V-565ZM2843.8 -565H2873.7V-571H2843.8V-565ZM2903.59 -565H2933.49V-571H2903.59V-565ZM2963.38 -565H2993.28V-571H2963.38V-565ZM3023.17 -565H3053.07V-571H3023.17V-565ZM3082.97 -565H3112.86V-571H3082.97V-565ZM3142.76 -565H3172.65V-571H3142.76V-565ZM3202.55 -565H3232.45V-571H3202.55V-565ZM3262.34 -565H3292.24V-571H3262.34V-565ZM3322.13 -565H3352.03V-571H3322.13V-565ZM3381.92 -565H3411.82V-571H3381.92V-565ZM3441.72 -565H3471.61V-571H3441.72V-565ZM3501.51 -565H3531.4V-571H3501.51V-565ZM3561.3 -565H3591.19V-571H3561.3V-565ZM3621.09 -565H3650.99V-571H3621.09V-565ZM3680.88 -565H3710.78V-571H3680.88V-565ZM3740.67 -565H3770.57V-571H3740.67V-565ZM3800.46 -565H3830.36V-571H3800.46V-565ZM3860.26 -565H3890.15V-571H3860.26V-565ZM3920.05 -565H3935V-571H3920.05V-565ZM3935 -565C3934.45 -565 3934 -565.448 3934 -566H3940C3940 -568.761 3937.76 -571 3935 -571V-565ZM3934 -566V-551.036H3940V-566H3934ZM3934 -521.109V-491.182H3940V-521.109H3934ZM3934 -461.255V-431.328H3940V-461.255H3934ZM3934 -401.4V-371.473H3940V-401.4H3934ZM3934 -341.546V-311.619H3940V-341.546H3934ZM3934 -281.692V-251.765H3940V-281.692H3934ZM3934 -221.837V-191.91H3940V-221.837H3934ZM3934 -161.983V-132.056H3940V-161.983H3934ZM3934 -102.129V-72.2014H3940V-102.129H3934ZM3934 -42.2743V-12.3471H3940V-42.2743H3934ZM3934 17.5801V47.5073H3940V17.5801H3934ZM3934 77.4344V107.362H3940V77.4344H3934ZM3934 137.289V167.216H3940V137.289H3934ZM3934 197.143V227.07H3940V197.143H3934ZM3934 256.998V286.925H3940V256.998H3934ZM3934 316.852V346.779H3940V316.852H3934ZM3934 376.706V406.633H3940V376.706H3934ZM3934 436.561V466.488H3940V436.561H3934ZM3934 496.415V526.342H3940V496.415H3934ZM3934 556.27V586.197H3940V556.27H3934ZM3934 616.124V646.051H3940V616.124H3934ZM3934 675.979V705.906H3940V675.979H3934ZM3934 735.833V765.76H3940V735.833H3934ZM3934 795.688V825.615H3940V795.688H3934ZM3934 855.542V885.469H3940V855.542H3934ZM3934 915.396V945.324H3940V915.396H3934ZM3934 975.251V1005.18H3940V975.251H3934ZM3934 1035.11V1065.03H3940V1035.11H3934ZM3934 1094.96V1124.89H3940V1094.96H3934ZM3934 1154.81V1184.74H3940V1154.81H3934ZM3934 1214.67V1244.6H3940V1214.67H3934ZM3934 1274.52V1304.45H3940V1274.52H3934ZM3934 1334.38V1364.31H3940V1334.38H3934ZM3934 1394.23V1424.16H3940V1394.23H3934ZM3934 1454.09V1484.01H3940V1454.09H3934ZM3934 1513.94V1543.87H3940V1513.94H3934ZM3934 1573.8V1603.72H3940V1573.8H3934ZM3934 1633.65V1663.58H3940V1633.65H3934ZM3934 1693.5V1723.43H3940V1693.5H3934ZM3934 1753.36V1783.29H3940V1753.36H3934ZM3934 1813.21V1843.14H3940V1813.21H3934ZM3934 1873.07V1903H3940V1873.07H3934ZM3934 1932.92V1962.85H3940V1932.92H3934ZM3934 1992.78V2022.7H3940V1992.78H3934ZM3934 2052.63V2082.56H3940V2052.63H3934ZM3934 2112.49V2142.41H3940V2112.49H3934ZM3934 2172.34V2202.27H3940V2172.34H3934ZM3934 2232.2V2262.12H3940V2232.2H3934ZM3934 2292.05V2321.98H3940V2292.05H3934ZM3934 2351.9V2381.83H3940V2351.9H3934ZM3934 2411.76V2441.69H3940V2411.76H3934ZM3934 2471.61V2501.54H3940V2471.61H3934ZM3934 2531.47V2561.4H3940V2531.47H3934ZM3934 2591.32V2621.25H3940V2591.32H3934ZM3934 2651.18V2681.1H3940V2651.18H3934ZM3934 2711.03V2740.96H3940V2711.03H3934ZM3934 2770.89V2800.81H3940V2770.89H3934ZM3934 2830.74V2860.67H3940V2830.74H3934ZM3934 2890.59V2920.52H3940V2890.59H3934ZM3934 2950.45V2980.38H3940V2950.45H3934ZM3934 3010.3V3040.23H3940V3010.3H3934ZM3934 3070.16V3100.09H3940V3070.16H3934ZM3934 3130.01V3159.94H3940V3130.01H3934ZM3934 3189.87V3219.79H3940V3189.87H3934ZM3934 3249.72V3279.65H3940V3249.72H3934ZM3934 3309.58V3339.5H3940V3309.58H3934ZM3934 3369.43V3399.36H3940V3369.43H3934ZM3934 3429.29V3459.21H3940V3429.29H3934ZM3934 3489.14V3519.07H3940V3489.14H3934ZM3934 3548.99V3578.92H3940V3548.99H3934ZM3934 3608.85V3638.78H3940V3608.85H3934ZM3934 3668.7V3698.63H3940V3668.7H3934ZM3934 3728.56V3758.48H3940V3728.56H3934ZM3934 3788.41V3818.34H3940V3788.41H3934ZM3934 3848.27V3878.19H3940V3848.27H3934ZM3934 3908.12V3938.05H3940V3908.12H3934ZM3934 3967.98V3997.9H3940V3967.98H3934ZM3934 4027.83V4057.76H3940V4027.83H3934ZM3934 4087.68V4117.61H3940V4087.68H3934ZM3934 4147.54V4177.47H3940V4147.54H3934ZM3934 4207.39V4237.32H3940V4207.39H3934ZM3934 4267.25V4297.18H3940V4267.25H3934ZM3934 4327.1V4357.03H3940V4327.1H3934ZM3934 4386.96V4416.88H3940V4386.96H3934ZM3934 4446.81V4476.74H3940V4446.81H3934ZM3934 4506.67V4536.59H3940V4506.67H3934ZM3934 4566.52V4596.45H3940V4566.52H3934ZM3934 4626.38V4656.3H3940V4626.38H3934ZM3934 4686.23V4716.16H3940V4686.23H3934ZM3934 4746.08V4776.01H3940V4746.08H3934ZM3934 4805.94V4835.87H3940V4805.94H3934ZM3934 4865.79V4895.72H3940V4865.79H3934ZM3934 4925.65V4955.57H3940V4925.65H3934ZM3934 4985.5V5015.43H3940V4985.5H3934ZM3934 5045.36V5075.28H3940V5045.36H3934ZM3934 5105.21V5135.14H3940V5105.21H3934ZM3934 5165.07V5194.99H3940V5165.07H3934ZM3934 5224.92V5254.85H3940V5224.92H3934ZM3934 5284.77V5314.7H3940V5284.77H3934ZM3934 5344.63V5374.56H3940V5344.63H3934ZM3934 5404.48V5434.41H3940V5404.48H3934ZM3934 5464.34V5494.27H3940V5464.34H3934ZM3934 5524.19V5554.12H3940V5524.19H3934ZM3934 5584.05V5599H3940V5584.05H3934ZM3934 5599C3934 5598.45 3934.45 5598 3935 5598V5604C3937.76 5604 3940 5601.76 3940 5599H3934ZM3935 5598H3920.05V5604H3935V5598ZM3890.16 5598H3860.26V5604H3890.16V5598ZM3830.36 5598H3800.47V5604H3830.36V5598ZM3770.57 5598H3740.68V5604H3770.57V5598ZM3710.78 5598H3680.89V5604H3710.78V5598ZM3650.99 5598H3621.09V5604H3650.99V5598ZM3591.2 5598H3561.3V5604H3591.2V5598ZM3531.41 5598H3501.51V5604H3531.41V5598ZM3471.61 5598H3441.72V5604H3471.61V5598ZM3411.82 5598H3381.93V5604H3411.82V5598ZM3352.03 5598H3322.14V5604H3352.03V5598ZM3292.24 5598H3262.34V5604H3292.24V5598ZM3232.45 5598H3202.55V5604H3232.45V5598ZM3172.66 5598H3142.76V5604H3172.66V5598ZM3112.86 5598H3082.97V5604H3112.86V5598ZM3053.07 5598H3023.18V5604H3053.07V5598ZM2993.28 5598H2963.39V5604H2993.28V5598ZM2933.49 5598H2903.59V5604H2933.49V5598ZM2873.7 5598H2843.8V5604H2873.7V5598ZM2813.91 5598H2784.01V5604H2813.91V5598ZM2754.11 5598H2724.22V5604H2754.11V5598ZM2694.32 5598H2664.43V5604H2694.32V5598ZM2634.53 5598H2604.64V5604H2634.53V5598ZM2574.74 5598H2544.84V5604H2574.74V5598ZM2514.95 5598H2485.05V5604H2514.95V5598ZM2455.16 5598H2425.26V5604H2455.16V5598ZM2395.36 5598H2365.47V5604H2395.36V5598ZM2335.57 5598H2305.68V5604H2335.57V5598ZM2275.78 5598H2245.88V5604H2275.78V5598ZM2215.99 5598H2186.09V5604H2215.99V5598ZM2156.2 5598H2126.3V5604H2156.2V5598ZM2096.41 5598H2066.51V5604H2096.41V5598ZM2036.61 5598H2006.72V5604H2036.61V5598ZM1976.82 5598H1946.93V5604H1976.82V5598ZM1917.03 5598H1887.13V5604H1917.03V5598ZM1857.24 5598H1827.34V5604H1857.24V5598ZM1797.45 5598H1767.55V5604H1797.45V5598ZM1737.66 5598H1707.76V5604H1737.66V5598ZM1677.86 5598H1647.97V5604H1677.86V5598ZM1618.07 5598H1588.18V5604H1618.07V5598ZM1558.28 5598H1528.39V5604H1558.28V5598ZM1498.49 5598H1468.59V5604H1498.49V5598ZM1438.7 5598H1408.8V5604H1438.7V5598ZM1378.91 5598H1349.01V5604H1378.91V5598ZM1319.12 5598H1289.22V5604H1319.12V5598ZM1259.32 5598H1229.43V5604H1259.32V5598ZM1199.53 5598H1169.64V5604H1199.53V5598ZM1139.74 5598H1109.84V5604H1139.74V5598ZM1079.95 5598H1050.05V5604H1079.95V5598ZM1020.16 5598H990.262V5604H1020.16V5598ZM960.366 5598H930.47V5604H960.366V5598ZM900.574 5598H870.679V5604H900.574V5598ZM840.783 5598H810.887V5604H840.783V5598ZM780.991 5598H751.096V5604H780.991V5598ZM721.2 5598H691.304V5604H721.2V5598ZM661.408 5598H631.513V5604H661.408V5598ZM601.617 5598H571.721V5604H601.617V5598ZM541.825 5598H511.93V5604H541.825V5598ZM482.034 5598H452.138V5604H482.034V5598ZM422.242 5598H392.347V5604H422.242V5598ZM362.451 5598H332.555V5604H362.451V5598ZM302.659 5598H272.764V5604H302.659V5598ZM242.868 5598H212.972V5604H242.868V5598ZM183.076 5598H153.181V5604H183.076V5598ZM123.285 5598H93.389V5604H123.285V5598ZM63.4933 5598H33.5976V5604H63.4933V5598ZM3.70187 5598H-26.1938V5604H3.70187V5598ZM-56.0896 5598H-85.9853V5604H-56.0896V5598ZM-115.881 5598H-145.777V5604H-115.881V5598ZM-175.673 5598H-205.569V5604H-175.673V5598ZM-235.465 5598H-265.361V5604H-235.465V5598ZM-295.257 5598H-325.153V5604H-295.257V5598ZM-355.049 5598H-370V5604H-355.049V5598Z" fill="white" fill-opacity="0.43"/>
<g id="&#236;&#178;&#171; &#235;&#178;&#136;&#236;&#167;&#184; &#237;&#153;&#148;&#235;&#169;&#180; +" clip-path="url(#clip0_277_1789)">
<rect width="390" height="844" transform="translate(-108 -270)" fill="white"/>
<g id="&#235;&#161;&#156;&#234;&#179;&#160;">
<g id="&#235;&#161;&#156;&#234;&#179;&#160;_2">
<path id="Union" fill-rule="evenodd" clip-rule="evenodd" d="M115.003 25.5143C109.907 44.6254 106.231 55.4172 103.329 63.5773L102.982 64.7566C102.836 65.6873 102.794 66.598 102.964 67.427C103.376 68.2392 103.827 68.1263 104.494 67.2428L111.13 54.1333C116.504 41.8727 123.045 28.8403 130.503 28.0159C136.76 27.3242 145.002 30.5124 140.502 47.5162C136.897 57.1266 130.225 73.9578 124.93 84.8889C124.937 86.2056 125.288 86.3435 125.954 86.0799C126.144 85.7084 126.327 85.3529 126.503 85.0145C132.502 71.5144 139.003 58.5143 148.503 64.0141C156.514 69.6692 151.2 81.5429 145.539 94.1924C145.194 94.964 144.847 95.7383 144.502 96.5144C139.276 108.274 123.851 138.61 114.98 144.921C106.29 153.378 94.2756 158.515 81.0024 158.515C59.4254 158.515 36.8675 148.585 29.2198 130.595C27.289 127.066 24.5383 120.088 23.0025 116.015C19.3403 106.302 13.8368 99.6498 9.13143 93.9624C4.11298 87.8965 0.00253659 82.9282 0.00253659 76.5149C0.00253659 76.5149 -0.416088 67.1587 9.50244 64.0143C12.8586 63.0821 17.3646 63.6784 21.5024 66.0144C26.7111 68.9549 31.9161 73.977 35.9 79.3943C37.7283 81.1025 39.8717 83.0765 42.0152 82.2192C44.0551 80.7921 45.968 73.81 47.0637 69.8108L47.0643 69.8084L47.0702 69.7868C47.1311 69.5647 47.1894 69.3519 47.2451 69.1499C49.2028 60.8808 52.0272 50.7362 54.599 41.4987L54.5991 41.4985L54.5991 41.4985L54.5991 41.4984L54.5992 41.498C55.5447 38.102 56.4561 34.8286 57.2777 31.8161C60.482 18.3153 64.376 11.8155 70.7785 10.8166C75.2785 9.69167 85.3667 12.8164 82.7786 25.816C82.491 27.2605 81.9192 29.9399 81.2092 33.2668C79.7776 39.9751 77.7841 49.316 76.4259 56.4752C76.3608 57.4561 76.3378 58.4382 76.4356 59.3506C76.868 60.1776 77.5325 60.1695 78.3089 59.6603C78.6686 59.1349 79.0878 58.4191 79.5892 57.5326C79.7205 57.1981 79.8584 56.8587 80.003 56.5144C91.503 18.5144 94.503 12.1889 102.503 9.51762C108.503 7.51432 118.003 11.0144 115.003 25.5143Z" fill="#FFE600"/>
<path id="Union_2" fill-rule="evenodd" clip-rule="evenodd" d="M130.003 25.5143C124.907 44.6254 121.231 55.4172 118.329 63.5773L117.982 64.7566C117.836 65.6873 117.794 66.598 117.964 67.427C118.074 67.6426 118.186 67.793 118.304 67.8811C118.511 67.89 118.704 67.8857 118.882 67.8702C119.066 67.7539 119.267 67.5428 119.494 67.2428L126.13 54.1333C131.504 41.8727 138.045 28.8403 145.503 28.0159C151.76 27.3242 160.002 30.5124 155.502 47.5162C151.897 57.1266 145.225 73.9578 139.93 84.8889C139.937 86.2056 140.288 86.3435 140.954 86.0799C141.144 85.7084 141.327 85.3529 141.503 85.0145C147.502 71.5144 154.003 58.5143 163.503 64.0141C171.514 69.6692 166.2 81.5429 160.539 94.1924C160.194 94.964 159.847 95.7383 159.502 96.5144C154.276 108.274 138.851 138.61 129.98 144.921C121.29 153.378 109.276 158.515 96.0024 158.515C74.4254 158.515 51.8675 148.585 44.2198 130.595C42.289 127.066 39.5383 120.088 38.0025 116.015C34.3403 106.302 28.8368 99.6498 24.1314 93.9624C19.113 87.8965 15.0025 82.9282 15.0025 76.5149C15.0025 76.5149 14.5839 67.1587 24.5024 64.0143C27.8586 63.0821 32.3646 63.6784 36.5024 66.0144C41.7111 68.9549 46.9161 73.977 50.9 79.3943C52.7283 81.1025 54.8717 83.0765 57.0152 82.2192C59.0551 80.7921 60.968 73.81 62.0637 69.8108L62.0643 69.8084C62.1273 69.5785 62.1876 69.3585 62.2451 69.1499C64.2028 60.8808 67.0272 50.7362 69.599 41.4987L69.5991 41.4985L69.5991 41.4985L69.5991 41.4984L69.5992 41.498C70.5447 38.102 71.4561 34.8286 72.2777 31.8161C75.482 18.3153 79.376 11.8155 85.7785 10.8166C90.2785 9.69167 100.367 12.8164 97.7786 25.816C97.491 27.2605 96.9192 29.9399 96.2092 33.2668C94.7776 39.9751 92.7841 49.316 91.4259 56.4752C91.3608 57.4561 91.3378 58.4382 91.4356 59.3506C91.868 60.1776 92.5325 60.1695 93.3089 59.6603C93.6686 59.1349 94.0878 58.4191 94.5892 57.5326C94.7205 57.1981 94.8584 56.8587 95.003 56.5144C106.503 18.5144 109.503 12.1889 117.503 9.51762C123.503 7.51432 133.003 11.0144 130.003 25.5143Z" fill="#0080F7"/>
<g id="Ellipse 13">
<path d="M39.0275 23.7811C32.1171 38.7148 33.5466 45.4716 29.0467 44.541C24.5333 44.1362 27.7849 35.1523 34.6952 20.2187C42.1 5.83325 45.5609 4.1643 47.4921 7.26552C48.9938 11.429 46.5192 9.91883 39.0275 23.7811Z" fill="#0080F7"/>
<path d="M39.0275 23.7811C32.1171 38.7148 33.5466 45.4716 29.0467 44.541C24.5333 44.1362 27.7849 35.1523 34.6952 20.2187C42.1 5.83325 45.5609 4.1643 47.4921 7.26552C48.9938 11.429 46.5192 9.91883 39.0275 23.7811Z" fill="#0080F7"/>
<path d="M29.6655 20.3532C22.7551 35.2869 24.1847 42.0437 19.6847 41.1131C15.1713 40.7083 18.4229 31.7244 25.3333 16.7907C32.738 2.40532 36.199 0.736374 38.1302 3.83759C39.6318 8.00112 37.1573 6.4909 29.6655 20.3532Z" fill="#0080F7"/>
</g>
<g id="Ellipse 14">
<path d="M146.604 151.235C156.939 139.731 157.318 133.083 161.324 135.362C165.478 137.164 160.115 144.371 149.78 155.874C139.119 166.718 135.428 167.152 134.399 163.696C134.047 159.402 135.995 161.571 146.604 151.235Z" fill="#0080F7"/>
<path d="M146.604 151.235C156.939 139.731 157.318 133.083 161.324 135.362C165.478 137.164 160.115 144.371 149.78 155.874C139.119 166.718 135.428 167.152 134.399 163.696C134.047 159.402 135.995 161.571 146.604 151.235Z" fill="#0080F7"/>
<path d="M154.559 157.345C164.894 145.842 165.272 139.193 169.279 141.472C173.433 143.274 168.07 150.481 157.735 161.984C147.074 172.828 143.383 173.262 142.354 169.806C142.001 165.512 143.95 167.681 154.559 157.345Z" fill="#0080F7"/>
</g>
<circle id="Ellipse 15" cx="78" cy="113" r="4" fill="white"/>
<circle id="Ellipse 16" cx="113" cy="113" r="4" fill="white"/>
<path id="Union_3" fill-rule="evenodd" clip-rule="evenodd" d="M109.013 123.176C109.039 123.211 109.06 123.248 109.076 123.287C109.666 123.76 110.137 125.409 110.803 129.247C112.169 137.13 110.798 141.355 106.485 142.814C102.171 144.273 96.3333 141.575 93.723 134.779C92.7605 132.273 92.3584 130.628 92.3665 129.548C85.3292 129.485 79.7188 127.895 80.0109 126.52C80.1714 125.765 81.6671 126.005 84.1213 126.4C86.5814 126.796 90.0045 127.346 94.011 127.204C98.7095 127.037 102.716 125.279 105.427 124.09C107.334 123.254 108.599 122.699 109.013 123.176ZM105.981 126.238C106.492 125.97 106.947 125.702 107.342 125.44C107.619 125.866 107.874 126.457 108.115 127.253C109.485 131.782 109.604 138.368 106.73 139.927C102.16 142.407 98.0351 138.715 95.5383 132.588C94.9777 131.212 94.7616 130.217 94.8035 129.486C95.3249 129.424 95.8376 129.352 96.3407 129.271C97.4943 130.833 100.267 132.227 102.407 131.479C104.792 130.646 106.392 128.059 105.981 126.238Z" fill="white"/>
<path id="Ellipse 21" d="M76.1902 89.896C73.8079 91.2924 71.4095 94.447 70.3182 91.8376C69.7082 90.3789 72.5181 87.5797 74.9004 86.1833C77.2828 84.7868 81.3329 84.7088 81.8914 85.6617C83.1337 88.8773 78.5725 88.4995 76.1902 89.896Z" fill="white"/>
<path id="Ellipse 22" d="M114.15 90.0307C116.34 91.5388 118.391 94.7825 119.68 92.2673C120.401 90.8613 117.92 87.9458 115.73 86.4378C113.54 84.9298 109.614 84.6315 108.988 85.5413C107.498 88.6463 111.96 88.5227 114.15 90.0307Z" fill="white"/>
</g>
</g>
</g>
</g>
<defs>
<clipPath id="clip0_277_1789">
<rect width="390" height="844" fill="white" transform="translate(-108 -270)"/>
</clipPath>
</defs>
</svg>
